<svg viewBox="0 0 390 844" xmlns="http://www.w3.org/2000/svg" font-family="system-ui,-apple-system,sans-serif">
  <rect width="390" height="844" fill="#0A0A0A"/>
  <!-- Status bar -->
  <text x="20" y="22" fill="#fff" font-size="15" font-weight="600">9:41</text>
  <rect x="330" y="12" width="42" height="16" rx="4" fill="none" stroke="#fff" stroke-width="1.5" opacity="0.6"/>
  <rect x="332" y="14" width="30" height="12" rx="2" fill="#BEFF00"/>
  <rect x="372" y="16" width="2" height="8" rx="1" fill="#fff" opacity="0.6"/>
  <!-- Page label -->
  <text x="20" y="65" fill="#555" font-size="11" letter-spacing="2" font-weight="600">INICIO</text>
  <!-- Hero card -->
  <rect x="16" y="76" width="358" height="118" rx="16" fill="#141414" stroke="#222" stroke-width="1"/>
  <text x="32" y="102" fill="#555" font-size="11" letter-spacing="1.5" font-weight="600">PATRIMONIO NETO</text>
  <text x="32" y="143" fill="#fff" font-size="40" font-weight="700" letter-spacing="-1">€7.852</text>
  <text x="197" y="143" fill="#fff" font-size="28" font-weight="700">,45</text>
  <!-- Divider -->
  <line x1="32" y1="162" x2="358" y2="162" stroke="#222" stroke-width="1"/>
  <text x="32" y="179" fill="#555" font-size="10" letter-spacing="1" font-weight="600">ACTIVOS</text>
  <text x="32" y="193" fill="#BEFF00" font-size="13" font-weight="600">€8.894,45</text>
  <line x1="180" y1="165" x2="180" y2="195" stroke="#333" stroke-width="1"/>
  <text x="195" y="179" fill="#555" font-size="10" letter-spacing="1" font-weight="600">DEUDAS</text>
  <text x="195" y="193" fill="#FF5555" font-size="13" font-weight="600">€1.042,00</text>

  <!-- Budget section -->
  <text x="20" y="222" fill="#555" font-size="11" letter-spacing="2" font-weight="600">PRESUPUESTO JUNIO</text>
  <rect x="16" y="231" width="358" height="220" rx="16" fill="#141414" stroke="#222" stroke-width="1"/>

  <!-- Supermarket -->
  <text x="32" y="256" fill="#fff" font-size="13" font-weight="500">Supermarket</text>
  <text x="340" y="256" fill="#F59E0B" font-size="12" font-weight="600" text-anchor="end">€249 / €337</text>
  <rect x="32" y="262" width="326" height="5" rx="2.5" fill="#222"/>
  <rect x="32" y="262" width="241" height="5" rx="2.5" fill="#F59E0B"/>

  <!-- Restaurante -->
  <text x="32" y="292" fill="#fff" font-size="13" font-weight="500">Restaurante / Bar</text>
  <text x="340" y="292" fill="#F59E0B" font-size="12" font-weight="600" text-anchor="end">€195 / €300</text>
  <rect x="32" y="298" width="326" height="5" rx="2.5" fill="#222"/>
  <rect x="32" y="298" width="212" height="5" rx="2.5" fill="#F59E0B"/>

  <!-- Ocio -->
  <text x="32" y="328" fill="#fff" font-size="13" font-weight="500">Ocio</text>
  <text x="340" y="328" fill="#FF5555" font-size="12" font-weight="600" text-anchor="end">€440 / €100</text>
  <rect x="32" y="334" width="326" height="5" rx="2.5" fill="#222"/>
  <rect x="32" y="334" width="326" height="5" rx="2.5" fill="#FF5555"/>

  <!-- Compras -->
  <text x="32" y="364" fill="#fff" font-size="13" font-weight="500">Compras</text>
  <text x="340" y="364" fill="#FF5555" font-size="12" font-weight="600" text-anchor="end">€415 / €150</text>
  <rect x="32" y="370" width="326" height="5" rx="2.5" fill="#222"/>
  <rect x="32" y="370" width="326" height="5" rx="2.5" fill="#FF5555"/>

  <!-- Transporte -->
  <text x="32" y="400" fill="#fff" font-size="13" font-weight="500">Transporte</text>
  <text x="340" y="400" fill="#F59E0B" font-size="12" font-weight="600" text-anchor="end">€114 / €45</text>
  <rect x="32" y="406" width="326" height="5" rx="2.5" fill="#222"/>
  <rect x="32" y="406" width="265" height="5" rx="2.5" fill="#F59E0B"/>

  <!-- Goals section -->
  <text x="20" y="476" fill="#555" font-size="11" letter-spacing="2" font-weight="600">OBJETIVOS</text>
  <rect x="16" y="485" width="358" height="148" rx="16" fill="#141414" stroke="#222" stroke-width="1"/>

  <!-- Japan Fund -->
  <text x="32" y="511" fill="#fff" font-size="14" font-weight="600">Japan Fund</text>
  <text x="358" y="511" fill="#BEFF00" font-size="12" font-weight="600" text-anchor="end">→ dic 2026</text>
  <text x="32" y="528" fill="#555" font-size="12">32% · faltan €4.277</text>
  <rect x="32" y="535" width="326" height="6" rx="3" fill="#222"/>
  <rect x="32" y="535" width="104" height="6" rx="3" fill="#BEFF00"/>

  <!-- Emergency -->
  <text x="32" y="568" fill="#fff" font-size="14" font-weight="600">Fondo emergencia</text>
  <text x="358" y="568" fill="#BEFF00" font-size="12" font-weight="600" text-anchor="end">→ ene 2027</text>
  <text x="32" y="585" fill="#555" font-size="12">27% · faltan €4.360</text>
  <rect x="32" y="592" width="326" height="6" rx="3" fill="#222"/>
  <rect x="32" y="592" width="88" height="6" rx="3" fill="#BEFF00"/>

  <!-- Goal 3 empty slot -->
  <rect x="32" y="614" width="100" height="6" rx="3" fill="#1A1A1A"/>
  <text x="32" y="627" fill="#333" font-size="12">+ Añadir objetivo</text>

  <!-- Recent expenses label -->
  <text x="20" y="658" fill="#555" font-size="11" letter-spacing="2" font-weight="600">ÚLTIMOS GASTOS</text>

  <!-- Expense rows -->
  <rect x="16" y="667" width="358" height="130" rx="16" fill="#141414" stroke="#222" stroke-width="1"/>

  <text x="32" y="692" fill="#fff" font-size="13" font-weight="500">Mercadona</text>
  <text x="340" y="692" fill="#fff" font-size="13" font-weight="600" text-anchor="end">−€34,50</text>
  <text x="32" y="706" fill="#444" font-size="11">Supermarket · hoy</text>
  <line x1="32" y1="714" x2="358" y2="714" stroke="#1E1E1E" stroke-width="1"/>

  <text x="32" y="729" fill="#fff" font-size="13" font-weight="500">Glovo</text>
  <text x="340" y="729" fill="#fff" font-size="13" font-weight="600" text-anchor="end">−€18,90</text>
  <text x="32" y="743" fill="#444" font-size="11">Restaurante / Bar · ayer</text>
  <line x1="32" y1="751" x2="358" y2="751" stroke="#1E1E1E" stroke-width="1"/>

  <text x="32" y="766" fill="#fff" font-size="13" font-weight="500">Zara</text>
  <text x="340" y="766" fill="#fff" font-size="13" font-weight="600" text-anchor="end">−€59,99</text>
  <text x="32" y="780" fill="#444" font-size="11">Compras · 27 jun</text>

  <!-- Bottom nav -->
  <rect x="0" y="760" width="390" height="84" fill="#0F0F0F" stroke="#1A1A1A" stroke-width="1"/>
  <!-- Nav items -->
  <rect x="16" y="770" width="60" height="44" rx="12" fill="#BEFF00"/>
  <text x="46" y="798" fill="#000" font-size="10" font-weight="700" text-anchor="middle">Inicio</text>

  <text x="140" y="798" fill="#444" font-size="10" text-anchor="middle">Gastos</text>
  <text x="218" y="798" fill="#444" font-size="10" text-anchor="middle">Cuentas</text>
  <text x="296" y="798" fill="#444" font-size="10" text-anchor="middle">Salud</text>
  <text x="358" y="798" fill="#444" font-size="10" text-anchor="middle">Entrenos</text>
  <!-- Home indicator -->
  <rect x="155" y="830" width="80" height="4" rx="2" fill="#333"/>
</svg>
