<svg viewBox="0 0 390 844" xmlns="http://www.w3.org/2000/svg" font-family="system-ui,-apple-system,sans-serif">
  <rect width="390" height="844" fill="#0A0A0A"/>
  <text x="20" y="22" fill="#fff" font-size="15" font-weight="600">9:41</text>
  <rect x="330" y="12" width="42" height="16" rx="4" fill="none" stroke="#fff" stroke-width="1.5" opacity="0.6"/>
  <rect x="332" y="14" width="30" height="12" rx="2" fill="#BEFF00"/>
  <rect x="372" y="16" width="2" height="8" rx="1" fill="#fff" opacity="0.6"/>

  <text x="20" y="65" fill="#555" font-size="11" letter-spacing="2" font-weight="600">ENTRENOS</text>

  <!-- This week summary -->
  <rect x="16" y="76" width="358" height="90" rx="16" fill="#141414" stroke="#222" stroke-width="1"/>
  <text x="32" y="102" fill="#555" font-size="11" letter-spacing="1.5" font-weight="600">ESTA SEMANA</text>

  <text x="32" y="140" fill="#fff" font-size="13" font-weight="500">Entrenos</text>
  <text x="32" y="157" fill="#BEFF00" font-size="22" font-weight="700">3</text>
  <line x1="120" y1="110" x2="120" y2="158" stroke="#222" stroke-width="1"/>
  <text x="135" y="140" fill="#fff" font-size="13" font-weight="500">Tiempo</text>
  <text x="135" y="157" fill="#fff" font-size="22" font-weight="700">4h 20m</text>
  <line x1="255" y1="110" x2="255" y2="158" stroke="#222" stroke-width="1"/>
  <text x="270" y="140" fill="#fff" font-size="13" font-weight="500">Carga</text>
  <text x="270" y="157" fill="#fff" font-size="22" font-weight="700">312</text>

  <!-- Form / Fitness -->
  <text x="20" y="196" fill="#555" font-size="11" letter-spacing="2" font-weight="600">FORMA FÍSICA</text>
  <rect x="16" y="205" width="172" height="80" rx="14" fill="#141414" stroke="#222" stroke-width="1"/>
  <text x="32" y="227" fill="#555" font-size="10" letter-spacing="1">FITNESS (CTL)</text>
  <text x="32" y="268" fill="#BEFF00" font-size="32" font-weight="700">52</text>
  <text x="80" y="268" fill="#555" font-size="13">pts</text>
  <text x="140" y="268" fill="#BEFF00" font-size="12" font-weight="600">↑ +3</text>

  <rect x="202" y="205" width="172" height="80" rx="14" fill="#141414" stroke="#222" stroke-width="1"/>
  <text x="218" y="227" fill="#555" font-size="10" letter-spacing="1">FORMA (TSB)</text>
  <text x="218" y="268" fill="#fff" font-size="32" font-weight="700">+8</text>
  <text x="272" y="268" fill="#555" font-size="13">pts</text>
  <text x="324" y="268" fill="#4ADE80" font-size="12" font-weight="600">fresco</text>

  <!-- Recent workouts -->
  <text x="20" y="314" fill="#555" font-size="11" letter-spacing="2" font-weight="600">ÚLTIMOS ENTRENOS</text>
  <rect x="16" y="323" width="358" height="340" rx="16" fill="#141414" stroke="#222" stroke-width="1"/>

  <!-- Workout 1 - Gym -->
  <rect x="32" y="342" width="36" height="36" rx="10" fill="#1A2A0A"/>
  <text x="50" y="365" fill="#BEFF00" font-size="18" text-anchor="middle">🏋</text>
  <text x="80" y="360" fill="#fff" font-size="14" font-weight="600">Gym — Pecho &amp; Tríceps</text>
  <text x="80" y="375" fill="#555" font-size="11">29 jun · 65 min · RPE 7</text>
  <text x="358" y="363" fill="#555" font-size="11" text-anchor="end">FC 142 bpm</text>
  <line x1="32" y1="390" x2="358" y2="390" stroke="#1E1E1E" stroke-width="1"/>

  <!-- Workout 2 - Run -->
  <rect x="32" y="404" width="36" height="36" rx="10" fill="#0A1A2A"/>
  <text x="50" y="427" fill="#60A5FA" font-size="18" text-anchor="middle">🏃</text>
  <text x="80" y="422" fill="#fff" font-size="14" font-weight="600">Carrera — Zona 2</text>
  <text x="80" y="437" fill="#555" font-size="11">27 jun · 45 min · 7.2 km</text>
  <text x="358" y="425" fill="#555" font-size="11" text-anchor="end">FC 148 bpm</text>
  <line x1="32" y1="452" x2="358" y2="452" stroke="#1E1E1E" stroke-width="1"/>

  <!-- Workout 3 - Gym -->
  <rect x="32" y="466" width="36" height="36" rx="10" fill="#1A2A0A"/>
  <text x="50" y="489" fill="#BEFF00" font-size="18" text-anchor="middle">🏋</text>
  <text x="80" y="484" fill="#fff" font-size="14" font-weight="600">Gym — Espalda &amp; Bíceps</text>
  <text x="80" y="499" fill="#555" font-size="11">25 jun · 70 min · RPE 8</text>
  <text x="358" y="487" fill="#555" font-size="11" text-anchor="end">FC 138 bpm</text>
  <line x1="32" y1="514" x2="358" y2="514" stroke="#1E1E1E" stroke-width="1"/>

  <!-- Workout 4 -->
  <rect x="32" y="528" width="36" height="36" rx="10" fill="#1A2A0A"/>
  <text x="50" y="551" fill="#BEFF00" font-size="18" text-anchor="middle">🏋</text>
  <text x="80" y="546" fill="#fff" font-size="14" font-weight="600">Gym — Pierna</text>
  <text x="80" y="561" fill="#555" font-size="11">23 jun · 80 min · RPE 9</text>
  <text x="358" y="549" fill="#555" font-size="11" text-anchor="end">FC 155 bpm</text>
  <line x1="32" y1="576" x2="358" y2="576" stroke="#1E1E1E" stroke-width="1"/>

  <!-- Workout 5 -->
  <rect x="32" y="590" width="36" height="36" rx="10" fill="#0A1A2A"/>
  <text x="50" y="613" fill="#60A5FA" font-size="18" text-anchor="middle">🏊</text>
  <text x="80" y="608" fill="#fff" font-size="14" font-weight="600">Natación</text>
  <text x="80" y="623" fill="#555" font-size="11">21 jun · 40 min · 1.200m</text>
  <text x="358" y="611" fill="#555" font-size="11" text-anchor="end">FC 132 bpm</text>
  <line x1="32" y1="638" x2="358" y2="638" stroke="#1E1E1E" stroke-width="1"/>

  <!-- Workout 6 -->
  <rect x="32" y="652" width="36" height="36" rx="10" fill="#1A2A0A"/>
  <text x="50" y="675" fill="#BEFF00" font-size="18" text-anchor="middle">🏋</text>
  <text x="80" y="670" fill="#fff" font-size="14" font-weight="600">Gym — Hombros &amp; Core</text>
  <text x="80" y="685" fill="#555" font-size="11">20 jun · 55 min · RPE 7</text>
  <text x="358" y="673" fill="#555" font-size="11" text-anchor="end">FC 136 bpm</text>

  <!-- Bottom nav -->
  <rect x="0" y="760" width="390" height="84" fill="#0F0F0F" stroke="#1A1A1A" stroke-width="1"/>
  <text x="46" y="798" fill="#444" font-size="10" text-anchor="middle">Inicio</text>
  <text x="130" y="798" fill="#444" font-size="10" text-anchor="middle">Gastos</text>
  <text x="216" y="798" fill="#444" font-size="10" text-anchor="middle">Cuentas</text>
  <text x="296" y="798" fill="#444" font-size="10" text-anchor="middle">Salud</text>
  <rect x="326" y="770" width="60" height="44" rx="12" fill="#BEFF00"/>
  <text x="356" y="798" fill="#000" font-size="10" font-weight="700" text-anchor="middle">Entrenos</text>
  <rect x="155" y="830" width="80" height="4" rx="2" fill="#333"/>
</svg>
