<svg viewBox="0 0 390 844" xmlns="http://www.w3.org/2000/svg" font-family="system-ui,-apple-system,sans-serif">
  <rect width="390" height="844" fill="#0A0A0A"/>
  <text x="20" y="22" fill="#fff" font-size="15" font-weight="600">9:41</text>
  <rect x="330" y="12" width="42" height="16" rx="4" fill="none" stroke="#fff" stroke-width="1.5" opacity="0.6"/>
  <rect x="332" y="14" width="30" height="12" rx="2" fill="#BEFF00"/>
  <text x="20" y="65" fill="#555" font-size="11" letter-spacing="2" font-weight="600">GASTOS</text>
  <rect x="280" y="50" width="94" height="26" rx="13" fill="#141414" stroke="#222" stroke-width="1"/>
  <text x="295" y="68" fill="#BEFF00" font-size="12" font-weight="600">◂</text>
  <text x="327" y="68" fill="#fff" font-size="12" font-weight="500" text-anchor="middle">may</text>
  <text x="358" y="68" fill="#555" font-size="12">▸</text>
  <rect x="16" y="82" width="358" height="100" rx="16" fill="#141414" stroke="#222" stroke-width="1"/>
  <text x="32" y="108" fill="#555" font-size="11" letter-spacing="1.5" font-weight="600">TOTAL GASTADO</text>
  <text x="32" y="148" fill="#fff" font-size="38" font-weight="700" letter-spacing="-1">€1.240</text>
  <text x="182" y="148" fill="#fff" font-size="26" font-weight="700">,80</text>
  <rect x="230" y="125" width="128" height="26" rx="13" fill="#0A1A0A"/>
  <text x="294" y="143" fill="#BEFF00" font-size="13" font-weight="600" text-anchor="middle">−22% vs abr</text>
  <text x="20" y="210" fill="#555" font-size="11" letter-spacing="2" font-weight="600">POR CATEGORÍA</text>
  <rect x="16" y="219" width="358" height="295" rx="16" fill="#141414" stroke="#222" stroke-width="1"/>
  <text x="32" y="248" fill="#fff" font-size="13" font-weight="500">Supermarket</text>
  <rect x="168" y="236" width="38" height="18" rx="9" fill="#0A1A0A"/>
  <text x="187" y="249" fill="#BEFF00" font-size="10" font-weight="600" text-anchor="middle">−12%</text>
  <text x="358" y="248" fill="#4ADE80" font-size="13" font-weight="600" text-anchor="end">€148,00</text>
  <rect x="32" y="254" width="326" height="4" rx="2" fill="#222"/>
  <rect x="32" y="254" width="240" height="4" rx="2" fill="#4ADE80"/>
  <line x1="32" y1="267" x2="358" y2="267" stroke="#1E1E1E" stroke-width="1"/>
  <text x="32" y="288" fill="#fff" font-size="13" font-weight="500">Restaurante / Bar</text>
  <rect x="224" y="277" width="38" height="18" rx="9" fill="#0A1A0A"/>
  <text x="243" y="290" fill="#BEFF00" font-size="10" font-weight="600" text-anchor="middle">−8%</text>
  <text x="358" y="288" fill="#4ADE80" font-size="13" font-weight="600" text-anchor="end">€112,40</text>
  <rect x="32" y="294" width="326" height="4" rx="2" fill="#222"/>
  <rect x="32" y="294" width="244" height="4" rx="2" fill="#4ADE80"/>
  <line x1="32" y1="307" x2="358" y2="307" stroke="#1E1E1E" stroke-width="1"/>
  <text x="32" y="328" fill="#fff" font-size="13" font-weight="500">Ocio</text>
  <rect x="70" y="317" width="38" height="18" rx="9" fill="#1A1A0A"/>
  <text x="89" y="330" fill="#F59E0B" font-size="10" font-weight="600" text-anchor="middle">+18%</text>
  <text x="358" y="328" fill="#F59E0B" font-size="13" font-weight="600" text-anchor="end">€118,50</text>
  <rect x="32" y="334" width="326" height="4" rx="2" fill="#222"/>
  <rect x="32" y="334" width="257" height="4" rx="2" fill="#F59E0B"/>
  <line x1="32" y1="347" x2="358" y2="347" stroke="#1E1E1E" stroke-width="1"/>
  <text x="32" y="368" fill="#fff" font-size="13" font-weight="500">Compras</text>
  <text x="358" y="368" fill="#4ADE80" font-size="13" font-weight="600" text-anchor="end">€84,00</text>
  <rect x="32" y="374" width="326" height="4" rx="2" fill="#222"/>
  <rect x="32" y="374" width="274" height="4" rx="2" fill="#4ADE80"/>
  <line x1="32" y1="387" x2="358" y2="387" stroke="#1E1E1E" stroke-width="1"/>
  <text x="32" y="408" fill="#fff" font-size="13" font-weight="500">Transporte</text>
  <rect x="132" y="397" width="38" height="18" rx="9" fill="#2A1A1A"/>
  <text x="151" y="410" fill="#FF5555" font-size="10" font-weight="600" text-anchor="middle">+21%</text>
  <text x="358" y="408" fill="#FF5555" font-size="13" font-weight="600" text-anchor="end">€97,00</text>
  <rect x="32" y="414" width="326" height="4" rx="2" fill="#222"/>
  <rect x="32" y="414" width="326" height="4" rx="2" fill="#FF5555"/>
  <line x1="32" y1="427" x2="358" y2="427" stroke="#1E1E1E" stroke-width="1"/>
  <text x="32" y="448" fill="#fff" font-size="13" font-weight="500">Health</text>
  <text x="358" y="448" fill="#4ADE80" font-size="13" font-weight="600" text-anchor="end">€40,00</text>
  <rect x="32" y="454" width="326" height="4" rx="2" fill="#222"/>
  <rect x="32" y="454" width="130" height="4" rx="2" fill="#4ADE80"/>
  <line x1="32" y1="467" x2="358" y2="467" stroke="#1E1E1E" stroke-width="1"/>
  <text x="32" y="488" fill="#fff" font-size="13" font-weight="500">Varios</text>
  <text x="358" y="488" fill="#4ADE80" font-size="13" font-weight="600" text-anchor="end">€35,90</text>
  <rect x="32" y="494" width="326" height="4" rx="2" fill="#222"/>
  <rect x="32" y="494" width="117" height="4" rx="2" fill="#4ADE80"/>
  <text x="20" y="540" fill="#555" font-size="11" letter-spacing="2" font-weight="600">ÚLTIMAS TRANSACCIONES</text>
  <rect x="16" y="549" width="358" height="194" rx="16" fill="#141414" stroke="#222" stroke-width="1"/>
  <text x="32" y="576" fill="#fff" font-size="13" font-weight="500">Supermercado</text>
  <text x="358" y="576" fill="#fff" font-size="13" font-weight="600" text-anchor="end">−€42,30</text>
  <text x="32" y="590" fill="#444" font-size="11">Supermarket · hoy</text>
  <line x1="32" y1="599" x2="358" y2="599" stroke="#1E1E1E" stroke-width="1"/>
  <text x="32" y="618" fill="#fff" font-size="13" font-weight="500">Restaurante La Mar</text>
  <text x="358" y="618" fill="#fff" font-size="13" font-weight="600" text-anchor="end">−€28,50</text>
  <text x="32" y="632" fill="#444" font-size="11">Restaurante / Bar · ayer</text>
  <line x1="32" y1="641" x2="358" y2="641" stroke="#1E1E1E" stroke-width="1"/>
  <text x="32" y="660" fill="#fff" font-size="13" font-weight="500">Librería</text>
  <text x="358" y="660" fill="#fff" font-size="13" font-weight="600" text-anchor="end">−€22,00</text>
  <text x="32" y="674" fill="#444" font-size="11">Compras · 12 may</text>
  <line x1="32" y1="683" x2="358" y2="683" stroke="#1E1E1E" stroke-width="1"/>
  <text x="32" y="702" fill="#fff" font-size="13" font-weight="500">Metro mensual</text>
  <text x="358" y="702" fill="#fff" font-size="13" font-weight="600" text-anchor="end">−€55,00</text>
  <text x="32" y="716" fill="#444" font-size="11">Transporte · 10 may</text>
  <line x1="32" y1="725" x2="358" y2="725" stroke="#1E1E1E" stroke-width="1"/>
  <text x="32" y="744" fill="#fff" font-size="13" font-weight="500">Cine</text>
  <text x="358" y="744" fill="#fff" font-size="13" font-weight="600" text-anchor="end">−€12,00</text>
  <text x="32" y="758" fill="#444" font-size="11">Ocio · 9 may</text>
  <rect x="0" y="760" width="390" height="84" fill="#0F0F0F" stroke="#1A1A1A" stroke-width="1"/>
  <text x="46" y="798" fill="#444" font-size="10" text-anchor="middle">Inicio</text>
  <rect x="100" y="770" width="60" height="44" rx="12" fill="#BEFF00"/>
  <text x="130" y="798" fill="#000" font-size="10" font-weight="700" text-anchor="middle">Gastos</text>
  <text x="218" y="798" fill="#444" font-size="10" text-anchor="middle">Cuentas</text>
  <text x="296" y="798" fill="#444" font-size="10" text-anchor="middle">Salud</text>
  <text x="358" y="798" fill="#444" font-size="10" text-anchor="middle">Entrenos</text>
  <rect x="155" y="830" width="80" height="4" rx="2" fill="#333"/>
</svg>
