<svg viewBox="0 0 390 844" xmlns="http://www.w3.org/2000/svg" font-family="system-ui,-apple-system,sans-serif">
  <rect width="390" height="844" fill="#0A0A0A"/>
  <!-- Status bar -->
  <text x="20" y="22" fill="#fff" font-size="15" font-weight="600">9:41</text>
  <rect x="330" y="12" width="42" height="16" rx="4" fill="none" stroke="#fff" stroke-width="1.5" opacity="0.6"/>
  <rect x="332" y="14" width="30" height="12" rx="2" fill="#BEFF00"/>
  <rect x="372" y="16" width="2" height="8" rx="1" fill="#fff" opacity="0.6"/>

  <!-- Header -->
  <text x="20" y="65" fill="#555" font-size="11" letter-spacing="2" font-weight="600">GASTOS</text>
  <!-- Month selector -->
  <rect x="280" y="50" width="94" height="26" rx="13" fill="#141414" stroke="#222" stroke-width="1"/>
  <text x="295" y="68" fill="#BEFF00" font-size="12" font-weight="600">◂</text>
  <text x="327" y="68" fill="#fff" font-size="12" font-weight="500" text-anchor="middle">jun</text>
  <text x="358" y="68" fill="#555" font-size="12">▸</text>

  <!-- Hero card -->
  <rect x="16" y="82" width="358" height="100" rx="16" fill="#141414" stroke="#222" stroke-width="1"/>
  <text x="32" y="108" fill="#555" font-size="11" letter-spacing="1.5" font-weight="600">TOTAL GASTADO</text>
  <text x="32" y="148" fill="#fff" font-size="38" font-weight="700" letter-spacing="-1">€1.653</text>
  <text x="188" y="148" fill="#fff" font-size="26" font-weight="700">,28</text>
  <!-- MoM badge -->
  <rect x="240" y="125" width="118" height="26" rx="13" fill="#1A2A0A"/>
  <text x="299" y="143" fill="#BEFF00" font-size="13" font-weight="600" text-anchor="middle">−16% vs may</text>

  <!-- Category breakdown -->
  <text x="20" y="210" fill="#555" font-size="11" letter-spacing="2" font-weight="600">POR CATEGORÍA</text>
  <rect x="16" y="219" width="358" height="330" rx="16" fill="#141414" stroke="#222" stroke-width="1"/>

  <!-- Ocio row -->
  <text x="32" y="248" fill="#fff" font-size="13" font-weight="500">Ocio</text>
  <rect x="142" y="238" width="42" height="18" rx="9" fill="#2A1A1A"/>
  <text x="163" y="251" fill="#FF5555" font-size="10" font-weight="600" text-anchor="middle">+194%</text>
  <text x="358" y="248" fill="#FF5555" font-size="13" font-weight="600" text-anchor="end">€440,77</text>
  <rect x="32" y="254" width="326" height="4" rx="2" fill="#222"/>
  <rect x="32" y="254" width="326" height="4" rx="2" fill="#FF5555"/>
  <line x1="32" y1="267" x2="358" y2="267" stroke="#1E1E1E" stroke-width="1"/>

  <!-- Compras -->
  <text x="32" y="288" fill="#fff" font-size="13" font-weight="500">Compras</text>
  <rect x="138" y="278" width="42" height="18" rx="9" fill="#2A1A1A"/>
  <text x="159" y="291" fill="#FF5555" font-size="10" font-weight="600" text-anchor="middle">+38%</text>
  <text x="358" y="288" fill="#FF5555" font-size="13" font-weight="600" text-anchor="end">€415,25</text>
  <rect x="32" y="294" width="326" height="4" rx="2" fill="#222"/>
  <rect x="32" y="294" width="300" height="4" rx="2" fill="#FF5555"/>
  <line x1="32" y1="307" x2="358" y2="307" stroke="#1E1E1E" stroke-width="1"/>

  <!-- Supermarket -->
  <text x="32" y="328" fill="#fff" font-size="13" font-weight="500">Supermarket</text>
  <rect x="168" y="318" width="38" height="18" rx="9" fill="#0A1A0A"/>
  <text x="187" y="331" fill="#BEFF00" font-size="10" font-weight="600" text-anchor="middle">−8%</text>
  <text x="358" y="328" fill="#F59E0B" font-size="13" font-weight="600" text-anchor="end">€249,90</text>
  <rect x="32" y="334" width="326" height="4" rx="2" fill="#222"/>
  <rect x="32" y="334" width="242" height="4" rx="2" fill="#F59E0B"/>
  <line x1="32" y1="347" x2="358" y2="347" stroke="#1E1E1E" stroke-width="1"/>

  <!-- Restaurante -->
  <text x="32" y="368" fill="#fff" font-size="13" font-weight="500">Restaurante / Bar</text>
  <rect x="224" y="358" width="38" height="18" rx="9" fill="#0A1A0A"/>
  <text x="243" y="371" fill="#BEFF00" font-size="10" font-weight="600" text-anchor="middle">−5%</text>
  <text x="358" y="368" fill="#F59E0B" font-size="13" font-weight="600" text-anchor="end">€195,56</text>
  <rect x="32" y="374" width="326" height="4" rx="2" fill="#222"/>
  <rect x="32" y="374" width="213" height="4" rx="2" fill="#F59E0B"/>
  <line x1="32" y1="387" x2="358" y2="387" stroke="#1E1E1E" stroke-width="1"/>

  <!-- Transporte -->
  <text x="32" y="408" fill="#fff" font-size="13" font-weight="500">Transporte</text>
  <text x="358" y="408" fill="#F59E0B" font-size="13" font-weight="600" text-anchor="end">€114,50</text>
  <rect x="32" y="414" width="326" height="4" rx="2" fill="#222"/>
  <rect x="32" y="414" width="124" height="4" rx="2" fill="#F59E0B"/>
  <line x1="32" y1="427" x2="358" y2="427" stroke="#1E1E1E" stroke-width="1"/>

  <!-- Varios -->
  <text x="32" y="448" fill="#fff" font-size="13" font-weight="500">Varios</text>
  <text x="358" y="448" fill="#F59E0B" font-size="13" font-weight="600" text-anchor="end">€114,67</text>
  <rect x="32" y="454" width="326" height="4" rx="2" fill="#222"/>
  <rect x="32" y="454" width="124" height="4" rx="2" fill="#F59E0B"/>
  <line x1="32" y1="467" x2="358" y2="467" stroke="#1E1E1E" stroke-width="1"/>

  <!-- Health -->
  <text x="32" y="488" fill="#fff" font-size="13" font-weight="500">Health</text>
  <text x="358" y="488" fill="#4ADE80" font-size="13" font-weight="600" text-anchor="end">€81,85</text>
  <rect x="32" y="494" width="326" height="4" rx="2" fill="#222"/>
  <rect x="32" y="494" width="88" height="4" rx="2" fill="#4ADE80"/>

  <!-- Recent transactions -->
  <text x="20" y="578" fill="#555" font-size="11" letter-spacing="2" font-weight="600">ÚLTIMAS TRANSACCIONES</text>
  <rect x="16" y="587" width="358" height="160" rx="16" fill="#141414" stroke="#222" stroke-width="1"/>

  <!-- Tx rows -->
  <text x="32" y="614" fill="#fff" font-size="13" font-weight="500">Mercadona</text>
  <text x="358" y="614" fill="#fff" font-size="13" font-weight="600" text-anchor="end">−€34,50</text>
  <text x="32" y="628" fill="#444" font-size="11">Supermarket · 29 jun</text>
  <line x1="32" y1="637" x2="358" y2="637" stroke="#1E1E1E" stroke-width="1"/>

  <text x="32" y="656" fill="#fff" font-size="13" font-weight="500">Glovo</text>
  <text x="358" y="656" fill="#fff" font-size="13" font-weight="600" text-anchor="end">−€18,90</text>
  <text x="32" y="670" fill="#444" font-size="11">Restaurante / Bar · 28 jun</text>
  <line x1="32" y1="679" x2="358" y2="679" stroke="#1E1E1E" stroke-width="1"/>

  <text x="32" y="698" fill="#fff" font-size="13" font-weight="500">Zara</text>
  <text x="358" y="698" fill="#fff" font-size="13" font-weight="600" text-anchor="end">−€59,99</text>
  <text x="32" y="712" fill="#444" font-size="11">Compras · 27 jun</text>
  <line x1="32" y1="721" x2="358" y2="721" stroke="#1E1E1E" stroke-width="1"/>

  <text x="32" y="740" fill="#fff" font-size="13" font-weight="500">Flixbus</text>
  <text x="358" y="740" fill="#fff" font-size="13" font-weight="600" text-anchor="end">−€22,00</text>
  <text x="32" y="754" fill="#444" font-size="11">Transporte · 26 jun</text>

  <!-- Bottom nav -->
  <rect x="0" y="760" width="390" height="84" fill="#0F0F0F" stroke="#1A1A1A" stroke-width="1"/>
  <text x="46" y="798" fill="#444" font-size="10" text-anchor="middle">Inicio</text>
  <rect x="100" y="770" width="60" height="44" rx="12" fill="#BEFF00"/>
  <text x="130" y="798" fill="#000" font-size="10" font-weight="700" text-anchor="middle">Gastos</text>
  <text x="218" y="798" fill="#444" font-size="10" text-anchor="middle">Cuentas</text>
  <text x="296" y="798" fill="#444" font-size="10" text-anchor="middle">Salud</text>
  <text x="358" y="798" fill="#444" font-size="10" text-anchor="middle">Entrenos</text>
  <rect x="155" y="830" width="80" height="4" rx="2" fill="#333"/>
</svg>
